<svg xmlns="http://www.w3.org/2000/svg" xmlns:xlink="http://www.w3.org/1999/xlink" contentStyleType="text/css" data-diagram-type="SEQUENCE" height="367px" preserveAspectRatio="none" style="width:699px;height:367px;background:#FFFFFF;" version="1.1" viewBox="0 0 699 367" width="699px" zoomAndPan="magnify"><defs/><g><rect fill="none" height="161.4688" style="stroke:#000000;stroke-width:1.5;" width="682.7876" x="10" y="153.6953"/><g><title>U&#382;ivatel</title><rect fill="#000000" fill-opacity="0.00000" height="295.8672" width="8" x="51.1709" y="36.2969"/><line style="stroke:#181818;stroke-width:0.5;stroke-dasharray:5.0,5.0;" x1="55" x2="55" y1="36.2969" y2="332.1641"/></g><g><title>Aplikace</title><rect fill="#000000" fill-opacity="0.00000" height="295.8672" width="8" x="455.7891" y="36.2969"/><line style="stroke:#181818;stroke-width:0.5;stroke-dasharray:5.0,5.0;" x1="459.1689" x2="459.1689" y1="36.2969" y2="332.1641"/></g><g class="participant participant-head" data-participant="U"><rect fill="#E2E2F0" height="30.2969" rx="2.5" ry="2.5" style="stroke:#181818;stroke-width:0.5;" width="70.3418" x="20" y="5"/><text fill="#000000" font-family="sans-serif" font-size="14" lengthAdjust="spacing" textLength="56.3418" x="27" y="24.9951">U&#382;ivatel</text></g><g class="participant participant-tail" data-participant="U"><rect fill="#E2E2F0" height="30.2969" rx="2.5" ry="2.5" style="stroke:#181818;stroke-width:0.5;" width="70.3418" x="20" y="331.1641"/><text fill="#000000" font-family="sans-serif" font-size="14" lengthAdjust="spacing" textLength="56.3418" x="27" y="351.1592">U&#382;ivatel</text></g><g class="participant participant-head" data-participant="A"><rect fill="#E2E2F0" height="30.2969" rx="2.5" ry="2.5" style="stroke:#181818;stroke-width:0.5;" width="73.2402" x="423.1689" y="5"/><text fill="#000000" font-family="sans-serif" font-size="14" lengthAdjust="spacing" textLength="59.2402" x="430.1689" y="24.9951">Aplikace</text></g><g class="participant participant-tail" data-participant="A"><rect fill="#E2E2F0" height="30.2969" rx="2.5" ry="2.5" style="stroke:#181818;stroke-width:0.5;" width="73.2402" x="423.1689" y="331.1641"/><text fill="#000000" font-family="sans-serif" font-size="14" lengthAdjust="spacing" textLength="59.2402" x="430.1689" y="351.1592">Aplikace</text></g><g class="message" data-participant-1="U" data-participant-2="A"><polygon fill="#181818" points="447.7891,63.4297,457.7891,67.4297,447.7891,71.4297,451.7891,67.4297" style="stroke:#181818;stroke-width:1;"/><line style="stroke:#181818;stroke-width:1;" x1="55.1709" x2="453.7891" y1="67.4297" y2="67.4297"/><text fill="#000000" font-family="sans-serif" font-size="13" lengthAdjust="spacing" textLength="200.1035" x="62.1709" y="62.3638">Otev&#345;e sekci "Multisig Wallets"</text></g><g class="message" data-participant-1="A" data-participant-2="A"><line style="stroke:#181818;stroke-width:1;" x1="459.7891" x2="501.7891" y1="96.5625" y2="96.5625"/><line style="stroke:#181818;stroke-width:1;" x1="501.7891" x2="501.7891" y1="96.5625" y2="109.5625"/><line style="stroke:#181818;stroke-width:1;" x1="460.7891" x2="501.7891" y1="109.5625" y2="109.5625"/><polygon fill="#181818" points="470.7891,105.5625,460.7891,109.5625,470.7891,113.5625,466.7891,109.5625" style="stroke:#181818;stroke-width:1;"/><text fill="#000000" font-family="sans-serif" font-size="13" lengthAdjust="spacing" textLength="219.3433" x="466.7891" y="91.4966">Na&#269;ti seznam multisig pen&#283;&#382;enek</text></g><g class="message" data-participant-1="A" data-participant-2="U"><polygon fill="#181818" points="66.1709,134.6953,56.1709,138.6953,66.1709,142.6953,62.1709,138.6953" style="stroke:#181818;stroke-width:1;"/><line style="stroke:#181818;stroke-width:1;" x1="60.1709" x2="458.7891" y1="138.6953" y2="138.6953"/><text fill="#000000" font-family="sans-serif" font-size="13" lengthAdjust="spacing" textLength="380.6182" x="72.1709" y="133.6294">Zobraz&#237; seznam pen&#283;&#382;enek s n&#225;zvem, M-of-N a z&#367;statkem</text></g><path d="M10,153.6953 L74.4429,153.6953 L74.4429,160.8281 L64.4429,170.8281 L10,170.8281 L10,153.6953" fill="#EEEEEE" style="stroke:#000000;stroke-width:1.5;"/><rect fill="none" height="161.4688" style="stroke:#000000;stroke-width:1.5;" width="682.7876" x="10" y="153.6953"/><text fill="#000000" font-family="sans-serif" font-size="13" font-weight="bold" lengthAdjust="spacing" textLength="19.4429" x="25" y="166.7622">alt</text><text fill="#000000" font-family="sans-serif" font-size="11" font-weight="bold" lengthAdjust="spacing" textLength="237.5527" x="89.4429" y="165.9058">[U&#382;ivatel vybere existuj&#237;c&#237; pen&#283;&#382;enku]</text><g class="message" data-participant-1="U" data-participant-2="A"><polygon fill="#181818" points="447.7891,187.9609,457.7891,191.9609,447.7891,195.9609,451.7891,191.9609" style="stroke:#181818;stroke-width:1;"/><line style="stroke:#181818;stroke-width:1;" x1="55.1709" x2="453.7891" y1="191.9609" y2="191.9609"/><text fill="#000000" font-family="sans-serif" font-size="13" lengthAdjust="spacing" textLength="226.7256" x="62.1709" y="186.895">Klikne na po&#382;adovanou pen&#283;&#382;enku</text></g><g class="message" data-participant-1="A" data-participant-2="U"><polygon fill="#181818" points="66.1709,217.0938,56.1709,221.0938,66.1709,225.0938,62.1709,221.0938" style="stroke:#181818;stroke-width:1;"/><line style="stroke:#181818;stroke-width:1;" x1="60.1709" x2="458.7891" y1="221.0938" y2="221.0938"/><text fill="#000000" font-family="sans-serif" font-size="13" lengthAdjust="spacing" textLength="200.916" x="72.1709" y="216.0278">U&#382;ivateli se zobraz&#237; pen&#283;&#382;enka</text></g><line style="stroke:#000000;stroke-width:1;stroke-dasharray:2.0,2.0;" x1="10" x2="692.7876" y1="230.0938" y2="230.0938"/><text fill="#000000" font-family="sans-serif" font-size="11" font-weight="bold" lengthAdjust="spacing" textLength="251.2759" x="15" y="240.3042">[U&#382;ivatel klikne na "Import Wallet" (4A)]</text><g class="message" data-participant-1="U" data-participant-2="A"><polygon fill="#181818" points="447.7891,261.0313,457.7891,265.0313,447.7891,269.0313,451.7891,265.0313" style="stroke:#181818;stroke-width:1;"/><line style="stroke:#181818;stroke-width:1;" x1="55.1709" x2="453.7891" y1="265.0313" y2="265.0313"/><text fill="#000000" font-family="sans-serif" font-size="13" lengthAdjust="spacing" textLength="218.1753" x="62.1709" y="259.9653">Spust&#237; import multisig pen&#283;&#382;enky</text></g><g class="message" data-participant-1="A" data-participant-2="A"><line style="stroke:#181818;stroke-width:1;" x1="459.7891" x2="501.7891" y1="294.1641" y2="294.1641"/><line style="stroke:#181818;stroke-width:1;" x1="501.7891" x2="501.7891" y1="294.1641" y2="307.1641"/><line style="stroke:#181818;stroke-width:1;" x1="460.7891" x2="501.7891" y1="307.1641" y2="307.1641"/><polygon fill="#181818" points="470.7891,303.1641,460.7891,307.1641,470.7891,311.1641,466.7891,307.1641" style="stroke:#181818;stroke-width:1;"/><text fill="#000000" font-family="sans-serif" font-size="13" lengthAdjust="spacing" textLength="213.9985" x="466.7891" y="289.0981">P&#345;echod do UC-14: Import Wallet</text></g><!--SRC=[PP5FIiD05CRtSugFh1JCGkYg2o6u4caL90ZkNfEdZZEP6JAJO7C73o2kF43n1jsqkPTJDMdLzVVZ-_EUeph8GZeo0KdUhsLBWNK2yiY5EnGpfwMYWh-qJ8WSwHaoJ74LkErV6PvL8P7C6Xsabm-u9Qqv-4Ha0pcdxKkG4UmCLQW6qB7PllLhDgo-sJooTtPHKxTP3VG110-pUUzQhaumI-rzEWUXwpzyeA2u4e9qmBW5xNB1DOEVfG_DqsPLHDFHJJK26ATSnec6OGZEzcigRKl6Dd_eiU8OiPk4RYYyfqcmZig-YXhzaulAsJhy72d1qIGxFcnouneVefdynlxVIYs7AZlyEZwWUBGbIelyF3sTJF4hGB0fFm40]--></g></svg>