<?plantuml 1.2026.2?><svg xmlns="http://www.w3.org/2000/svg" xmlns:xlink="http://www.w3.org/1999/xlink" contentStyleType="text/css" data-diagram-type="CLASS" height="2350px" preserveAspectRatio="none" style="width:1794px;height:2350px;background:#FFFFFF;" version="1.1" viewBox="0 0 1794 2350" width="1794px" zoomAndPan="magnify"><defs/><g><!--cluster auth-service--><g class="cluster" data-qualified-name="auth-service" data-source-line="15" id="ent0002"><path d="M530.5,11.876 L729.3244,11.876 A3.75,3.75 0 0 1 731.8244,14.376 L738.8244,61.4601 L931.5,61.4601 A2.5,2.5 0 0 1 934,63.9601 L934,374.886 A2.5,2.5 0 0 1 931.5,377.386 L530.5,377.386 A2.5,2.5 0 0 1 528,374.886 L528,14.376 A2.5,2.5 0 0 1 530.5,11.876" fill="none" style="stroke:#000000;stroke-width:1.5;"/><line style="stroke:#000000;stroke-width:1.5;" x1="528" x2="738.8244" y1="61.4601" y2="61.4601"/><text fill="#000000" font-family="sans-serif" font-size="32" font-weight="bold" lengthAdjust="spacing" textLength="197.8244" x="532" y="48.0841">auth-service</text></g><!--cluster wallet-registry--><g class="cluster" data-qualified-name="wallet-registry" data-source-line="28" id="ent0004"><path d="M8.5,401.386 L244.0925,401.386 A3.75,3.75 0 0 1 246.5925,403.886 L253.5925,450.9701 L1248.5,450.9701 A2.5,2.5 0 0 1 1251,453.4701 L1251,1779.276 A2.5,2.5 0 0 1 1248.5,1781.776 L8.5,1781.776 A2.5,2.5 0 0 1 6,1779.276 L6,403.886 A2.5,2.5 0 0 1 8.5,401.386" fill="none" style="stroke:#000000;stroke-width:1.5;"/><line style="stroke:#000000;stroke-width:1.5;" x1="6" x2="253.5925" y1="450.9701" y2="450.9701"/><text fill="#000000" font-family="sans-serif" font-size="32" font-weight="bold" lengthAdjust="spacing" textLength="234.5925" x="10" y="437.5941">wallet-registry</text></g><!--cluster psbt-service--><g class="cluster" data-qualified-name="psbt-service" data-source-line="80" id="ent0010"><path d="M1277.5,1307.316 L1472.0684,1307.316 A3.75,3.75 0 0 1 1474.5684,1309.816 L1481.5684,1356.9001 L1784.5,1356.9001 A2.5,2.5 0 0 1 1787,1359.4001 L1787,2341.496 A2.5,2.5 0 0 1 1784.5,2343.996 L1277.5,2343.996 A2.5,2.5 0 0 1 1275,2341.496 L1275,1309.816 A2.5,2.5 0 0 1 1277.5,1307.316" fill="none" style="stroke:#000000;stroke-width:1.5;"/><line style="stroke:#000000;stroke-width:1.5;" x1="1275" x2="1481.5684" y1="1356.9001" y2="1356.9001"/><text fill="#000000" font-family="sans-serif" font-size="32" font-weight="bold" lengthAdjust="spacing" textLength="193.5684" x="1279" y="1343.5241">psbt-service</text></g><!--class devices--><g class="entity" data-qualified-name="auth-service.devices" data-source-line="17" id="ent0003"><rect fill="#F1F1F1" height="287.5045" rx="2.5" ry="2.5" style="stroke:#181818;stroke-width:0.5;" width="374.4328" x="543.78" y="73.876"/><text fill="#000000" font-family="sans-serif" font-size="32" lengthAdjust="spacing" textLength="110.9762" x="675.5083" y="113.0841">devices</text><line style="stroke:#181818;stroke-width:0.5;" x1="544.78" x2="917.2128" y1="127.4601" y2="127.4601"/><g data-visibility-modifier="IE_MANDATORY"><ellipse cx="554.78" cy="154.7521" fill="#000000" rx="3" ry="3" style="stroke:#000000;stroke-width:1;"/></g><text fill="#000000" font-family="sans-serif" font-size="32" font-weight="bold" lengthAdjust="spacing" textLength="145.7283" x="568.78" y="165.6682">device_id</text><text fill="#000000" font-family="sans-serif" font-size="32" lengthAdjust="spacing" textLength="169.0884" x="722.8283" y="165.6682">: TEXT &#171;PK&#187;</text><line style="stroke:#181818;stroke-width:1;" x1="544.78" x2="917.2128" y1="179.0442" y2="179.0442"/><text fill="#000000" font-family="sans-serif" font-size="32" lengthAdjust="spacing" textLength="259.8086" x="549.78" y="217.2523">fingerprint : TEXT</text><text fill="#000000" font-family="sans-serif" font-size="32" lengthAdjust="spacing" textLength="192.6084" x="549.78" y="260.8363">model : TEXT</text><text fill="#000000" font-family="sans-serif" font-size="32" lengthAdjust="spacing" textLength="169.5364" x="549.78" y="304.4204">label : TEXT</text><text fill="#000000" font-family="sans-serif" font-size="32" lengthAdjust="spacing" textLength="362.4328" x="549.78" y="348.0045">created_at : TIMESTAMP</text></g><!--class wallets--><g class="entity" data-qualified-name="wallet-registry.wallets" data-source-line="30" id="ent0005"><rect fill="#F1F1F1" height="505.425" rx="2.5" ry="2.5" style="stroke:#181818;stroke-width:0.5;" width="387.8408" x="537.08" y="463.386"/><text fill="#000000" font-family="sans-serif" font-size="32" lengthAdjust="spacing" textLength="104.5442" x="678.7283" y="502.5941">wallets</text><line style="stroke:#181818;stroke-width:0.5;" x1="538.08" x2="923.9208" y1="516.9701" y2="516.9701"/><g data-visibility-modifier="IE_MANDATORY"><ellipse cx="548.08" cy="544.2621" fill="#000000" rx="3" ry="3" style="stroke:#000000;stroke-width:1;"/></g><text fill="#000000" font-family="sans-serif" font-size="32" font-weight="bold" lengthAdjust="spacing" textLength="141.5683" x="562.08" y="555.1782">wallet_id</text><text fill="#000000" font-family="sans-serif" font-size="32" lengthAdjust="spacing" textLength="169.0884" x="711.9683" y="555.1782">: TEXT &#171;PK&#187;</text><line style="stroke:#181818;stroke-width:1;" x1="538.08" x2="923.9208" y1="568.5542" y2="568.5542"/><text fill="#000000" font-family="sans-serif" font-size="32" lengthAdjust="spacing" textLength="221.5365" x="543.08" y="606.7623">network : TEXT</text><text fill="#000000" font-family="sans-serif" font-size="32" lengthAdjust="spacing" textLength="162.9444" x="543.08" y="650.3463">type : TEXT</text><text fill="#000000" font-family="sans-serif" font-size="32" lengthAdjust="spacing" textLength="260.5446" x="543.08" y="693.9304">script_type : TEXT</text><text fill="#000000" font-family="sans-serif" font-size="32" lengthAdjust="spacing" textLength="108.0962" x="543.08" y="737.5145">m : INT</text><text fill="#000000" font-family="sans-serif" font-size="32" lengthAdjust="spacing" textLength="97.9522" x="543.08" y="781.0986">n : INT</text><text fill="#000000" font-family="sans-serif" font-size="32" lengthAdjust="spacing" textLength="294.2086" x="543.08" y="824.6827">account_index : INT</text><text fill="#000000" font-family="sans-serif" font-size="32" lengthAdjust="spacing" textLength="372.4808" x="543.08" y="868.2668">receive_descriptor : TEXT</text><text fill="#000000" font-family="sans-serif" font-size="32" lengthAdjust="spacing" textLength="375.8408" x="543.08" y="911.8509">change_descriptor : TEXT</text><text fill="#000000" font-family="sans-serif" font-size="32" lengthAdjust="spacing" textLength="362.4328" x="543.08" y="955.435">created_at : TIMESTAMP</text></g><!--class cosigners--><g class="entity" data-qualified-name="wallet-registry.cosigners" data-source-line="44" id="ent0006"><rect fill="#F1F1F1" height="287.5045" rx="2.5" ry="2.5" style="stroke:#181818;stroke-width:0.5;" width="387.9288" x="448.04" y="1003.806"/><text fill="#000000" font-family="sans-serif" font-size="32" lengthAdjust="spacing" textLength="144.3523" x="569.8282" y="1043.0141">cosigners</text><line style="stroke:#181818;stroke-width:0.5;" x1="449.04" x2="834.9688" y1="1057.3901" y2="1057.3901"/><g data-visibility-modifier="IE_MANDATORY"><ellipse cx="459.04" cy="1084.6821" fill="#000000" rx="3" ry="3" style="stroke:#000000;stroke-width:1;"/></g><text fill="#000000" font-family="sans-serif" font-size="32" font-weight="bold" lengthAdjust="spacing" textLength="179.5204" x="473.04" y="1095.5982">cosigner_id</text><text fill="#000000" font-family="sans-serif" font-size="32" lengthAdjust="spacing" textLength="169.0884" x="660.8804" y="1095.5982">: TEXT &#171;PK&#187;</text><line style="stroke:#181818;stroke-width:1;" x1="449.04" x2="834.9688" y1="1108.9742" y2="1108.9742"/><text fill="#000000" font-family="sans-serif" font-size="32" lengthAdjust="spacing" textLength="259.8086" x="454.04" y="1147.1823">fingerprint : TEXT</text><text fill="#000000" font-family="sans-serif" font-size="32" lengthAdjust="spacing" textLength="269.0566" x="454.04" y="1190.7663">origin_path : TEXT</text><text fill="#000000" font-family="sans-serif" font-size="32" lengthAdjust="spacing" textLength="251.1046" x="454.04" y="1234.3504">xpub_root : TEXT</text><text fill="#000000" font-family="sans-serif" font-size="32" lengthAdjust="spacing" textLength="362.4328" x="454.04" y="1277.9345">created_at : TIMESTAMP</text></g><!--class wcosigners--><g class="entity" data-qualified-name="wallet-registry.wcosigners" data-source-line="53" id="ent0007"><rect fill="#F1F1F1" height="200.3363" rx="2.5" ry="2.5" style="stroke:#181818;stroke-width:0.5;" width="376.8247" x="233.59" y="1565.446"/><text fill="#000000" font-family="sans-serif" font-size="32" lengthAdjust="spacing" textLength="247.7765" x="298.1141" y="1604.6541">wallet_cosigners</text><line style="stroke:#181818;stroke-width:0.5;" x1="234.59" x2="609.4147" y1="1619.0301" y2="1619.0301"/><g data-visibility-modifier="IE_MANDATORY"><ellipse cx="244.59" cy="1646.3221" fill="#000000" rx="3" ry="3" style="stroke:#000000;stroke-width:1;"/></g><text fill="#000000" font-family="sans-serif" font-size="32" font-weight="bold" lengthAdjust="spacing" textLength="141.5683" x="258.59" y="1657.2382">wallet_id</text><text fill="#000000" font-family="sans-serif" font-size="32" lengthAdjust="spacing" textLength="166.3364" x="408.4783" y="1657.2382">: TEXT &#171;FK&#187;</text><g data-visibility-modifier="IE_MANDATORY"><ellipse cx="244.59" cy="1689.9062" fill="#000000" rx="3" ry="3" style="stroke:#000000;stroke-width:1;"/></g><text fill="#000000" font-family="sans-serif" font-size="32" font-weight="bold" lengthAdjust="spacing" textLength="48.2881" x="258.59" y="1700.8223">idx</text><text fill="#000000" font-family="sans-serif" font-size="32" lengthAdjust="spacing" textLength="69.8562" x="315.1981" y="1700.8223">: INT</text><line style="stroke:#181818;stroke-width:1;" x1="234.59" x2="609.4147" y1="1714.1983" y2="1714.1983"/><g data-visibility-modifier="IE_MANDATORY"><ellipse cx="244.59" cy="1741.4903" fill="#000000" rx="3" ry="3" style="stroke:#000000;stroke-width:1;"/></g><text fill="#000000" font-family="sans-serif" font-size="32" lengthAdjust="spacing" textLength="345.8247" x="258.59" y="1752.4063">cosigner_id : TEXT &#171;FK&#187;</text></g><!--class members--><g class="entity" data-qualified-name="wallet-registry.members" data-source-line="60" id="ent0008"><rect fill="#F1F1F1" height="287.5045" rx="2.5" ry="2.5" style="stroke:#181818;stroke-width:0.5;" width="374.4328" x="21.78" y="1003.806"/><text fill="#000000" font-family="sans-serif" font-size="32" lengthAdjust="spacing" textLength="247.5845" x="85.2042" y="1043.0141">wallet_members</text><line style="stroke:#181818;stroke-width:0.5;" x1="22.78" x2="395.2128" y1="1057.3901" y2="1057.3901"/><g data-visibility-modifier="IE_MANDATORY"><ellipse cx="32.78" cy="1084.6821" fill="#000000" rx="3" ry="3" style="stroke:#000000;stroke-width:1;"/></g><text fill="#000000" font-family="sans-serif" font-size="32" font-weight="bold" lengthAdjust="spacing" textLength="141.5683" x="46.78" y="1095.5982">wallet_id</text><text fill="#000000" font-family="sans-serif" font-size="32" lengthAdjust="spacing" textLength="166.3364" x="196.6683" y="1095.5982">: TEXT &#171;FK&#187;</text><g data-visibility-modifier="IE_MANDATORY"><ellipse cx="32.78" cy="1128.2662" fill="#000000" rx="3" ry="3" style="stroke:#000000;stroke-width:1;"/></g><text fill="#000000" font-family="sans-serif" font-size="32" font-weight="bold" lengthAdjust="spacing" textLength="145.7283" x="46.78" y="1139.1823">device_id</text><text fill="#000000" font-family="sans-serif" font-size="32" lengthAdjust="spacing" textLength="89.0242" x="200.8283" y="1139.1823">: TEXT</text><g data-visibility-modifier="IE_MANDATORY"><ellipse cx="32.78" cy="1171.8503" fill="#000000" rx="3" ry="3" style="stroke:#000000;stroke-width:1;"/></g><text fill="#000000" font-family="sans-serif" font-size="32" font-weight="bold" lengthAdjust="spacing" textLength="229.0245" x="46.78" y="1182.7663">account_index</text><text fill="#000000" font-family="sans-serif" font-size="32" lengthAdjust="spacing" textLength="69.8562" x="284.1245" y="1182.7663">: INT</text><line style="stroke:#181818;stroke-width:1;" x1="22.78" x2="395.2128" y1="1196.1424" y2="1196.1424"/><text fill="#000000" font-family="sans-serif" font-size="32" lengthAdjust="spacing" textLength="169.5364" x="27.78" y="1234.3504">label : TEXT</text><text fill="#000000" font-family="sans-serif" font-size="32" lengthAdjust="spacing" textLength="362.4328" x="27.78" y="1277.9345">created_at : TIMESTAMP</text></g><!--class addresses--><g class="entity" data-qualified-name="wallet-registry.addresses" data-source-line="69" id="ent0009"><rect fill="#F1F1F1" height="287.5045" rx="2.5" ry="2.5" style="stroke:#181818;stroke-width:0.5;" width="374.4328" x="860.78" y="1003.806"/><text fill="#000000" font-family="sans-serif" font-size="32" lengthAdjust="spacing" textLength="256.0325" x="919.9801" y="1043.0141">wallet_addresses</text><line style="stroke:#181818;stroke-width:0.5;" x1="861.78" x2="1234.2128" y1="1057.3901" y2="1057.3901"/><g data-visibility-modifier="IE_MANDATORY"><ellipse cx="871.78" cy="1084.6821" fill="#000000" rx="3" ry="3" style="stroke:#000000;stroke-width:1;"/></g><text fill="#000000" font-family="sans-serif" font-size="32" font-weight="bold" lengthAdjust="spacing" textLength="141.5683" x="885.78" y="1095.5982">wallet_id</text><text fill="#000000" font-family="sans-serif" font-size="32" lengthAdjust="spacing" textLength="166.3364" x="1035.6683" y="1095.5982">: TEXT &#171;FK&#187;</text><g data-visibility-modifier="IE_MANDATORY"><ellipse cx="871.78" cy="1128.2662" fill="#000000" rx="3" ry="3" style="stroke:#000000;stroke-width:1;"/></g><text fill="#000000" font-family="sans-serif" font-size="32" font-weight="bold" lengthAdjust="spacing" textLength="209.7924" x="885.78" y="1139.1823">address_type</text><text fill="#000000" font-family="sans-serif" font-size="32" lengthAdjust="spacing" textLength="89.0242" x="1103.8924" y="1139.1823">: TEXT</text><g data-visibility-modifier="IE_MANDATORY"><ellipse cx="871.78" cy="1171.8503" fill="#000000" rx="3" ry="3" style="stroke:#000000;stroke-width:1;"/></g><text fill="#000000" font-family="sans-serif" font-size="32" font-weight="bold" lengthAdjust="spacing" textLength="226.4965" x="885.78" y="1182.7663">address_index</text><text fill="#000000" font-family="sans-serif" font-size="32" lengthAdjust="spacing" textLength="69.8562" x="1120.5965" y="1182.7663">: INT</text><line style="stroke:#181818;stroke-width:1;" x1="861.78" x2="1234.2128" y1="1196.1424" y2="1196.1424"/><text fill="#000000" font-family="sans-serif" font-size="32" lengthAdjust="spacing" textLength="216.5765" x="866.78" y="1234.3504">address : TEXT</text><text fill="#000000" font-family="sans-serif" font-size="32" lengthAdjust="spacing" textLength="362.4328" x="866.78" y="1277.9345">created_at : TIMESTAMP</text></g><!--class psbts--><g class="entity" data-qualified-name="psbt-service.psbts" data-source-line="82" id="ent0011"><rect fill="#F1F1F1" height="592.5931" rx="2.5" ry="2.5" style="stroke:#181818;stroke-width:0.5;" width="480.473" x="1290.76" y="1369.316"/><text fill="#000000" font-family="sans-serif" font-size="32" lengthAdjust="spacing" textLength="81.5682" x="1490.2124" y="1408.5241">psbts</text><line style="stroke:#181818;stroke-width:0.5;" x1="1291.76" x2="1770.233" y1="1422.9001" y2="1422.9001"/><g data-visibility-modifier="IE_MANDATORY"><ellipse cx="1301.76" cy="1450.1921" fill="#000000" rx="3" ry="3" style="stroke:#000000;stroke-width:1;"/></g><text fill="#000000" font-family="sans-serif" font-size="32" font-weight="bold" lengthAdjust="spacing" textLength="29.7921" x="1315.76" y="1461.1082">id</text><text fill="#000000" font-family="sans-serif" font-size="32" lengthAdjust="spacing" textLength="177.9524" x="1353.8721" y="1461.1082">: UUID &#171;PK&#187;</text><line style="stroke:#181818;stroke-width:1;" x1="1291.76" x2="1770.233" y1="1474.4842" y2="1474.4842"/><g data-visibility-modifier="IE_MANDATORY"><ellipse cx="1301.76" cy="1501.7762" fill="#000000" rx="3" ry="3" style="stroke:#000000;stroke-width:1;"/></g><text fill="#000000" font-family="sans-serif" font-size="32" lengthAdjust="spacing" textLength="306.0167" x="1315.76" y="1512.6923">wallet_id : TEXT &#171;FK&#187;</text><text fill="#000000" font-family="sans-serif" font-size="32" lengthAdjust="spacing" textLength="285.4086" x="1315.76" y="1556.2763">psbt_base64 : TEXT</text><text fill="#000000" font-family="sans-serif" font-size="32" lengthAdjust="spacing" textLength="316.3527" x="1315.76" y="1599.8604">status : VARCHAR(50)</text><text fill="#000000" font-family="sans-serif" font-size="32" lengthAdjust="spacing" textLength="280.8966" x="1315.76" y="1643.4445">required_sigs : INT</text><text fill="#000000" font-family="sans-serif" font-size="32" lengthAdjust="spacing" textLength="261.9206" x="1315.76" y="1687.0286">current_sigs : INT</text><text fill="#000000" font-family="sans-serif" font-size="32" lengthAdjust="spacing" textLength="392.0648" x="1315.76" y="1730.6127">total_output_sats : BIGINT</text><text fill="#000000" font-family="sans-serif" font-size="32" lengthAdjust="spacing" textLength="419.1369" x="1315.76" y="1774.1968">estimated_fee_sats : BIGINT</text><text fill="#000000" font-family="sans-serif" font-size="32" lengthAdjust="spacing" textLength="449.473" x="1315.76" y="1817.7809">trezor_connect_params : TEXT</text><text fill="#000000" font-family="sans-serif" font-size="32" lengthAdjust="spacing" textLength="282.1126" x="1315.76" y="1861.365">serialized_tx : TEXT</text><text fill="#000000" font-family="sans-serif" font-size="32" lengthAdjust="spacing" textLength="362.4328" x="1315.76" y="1904.949">created_at : TIMESTAMP</text><text fill="#000000" font-family="sans-serif" font-size="32" lengthAdjust="spacing" textLength="374.9448" x="1315.76" y="1948.5331">updated_at : TIMESTAMP</text></g><!--class signatures--><g class="entity" data-qualified-name="psbt-service.signatures" data-source-line="98" id="ent0012"><rect fill="#F1F1F1" height="331.0886" rx="2.5" ry="2.5" style="stroke:#181818;stroke-width:0.5;" width="418.3289" x="1321.84" y="1996.906"/><text fill="#000000" font-family="sans-serif" font-size="32" lengthAdjust="spacing" textLength="239.3605" x="1411.3242" y="2036.1141">psbt_signatures</text><line style="stroke:#181818;stroke-width:0.5;" x1="1322.84" x2="1739.1689" y1="2050.4901" y2="2050.4901"/><g data-visibility-modifier="IE_MANDATORY"><ellipse cx="1332.84" cy="2077.7821" fill="#000000" rx="3" ry="3" style="stroke:#000000;stroke-width:1;"/></g><text fill="#000000" font-family="sans-serif" font-size="32" font-weight="bold" lengthAdjust="spacing" textLength="29.7921" x="1346.84" y="2088.6982">id</text><text fill="#000000" font-family="sans-serif" font-size="32" lengthAdjust="spacing" textLength="177.9524" x="1384.9521" y="2088.6982">: UUID &#171;PK&#187;</text><line style="stroke:#181818;stroke-width:1;" x1="1322.84" x2="1739.1689" y1="2102.0742" y2="2102.0742"/><g data-visibility-modifier="IE_MANDATORY"><ellipse cx="1332.84" cy="2129.3662" fill="#000000" rx="3" ry="3" style="stroke:#000000;stroke-width:1;"/></g><text fill="#000000" font-family="sans-serif" font-size="32" lengthAdjust="spacing" textLength="291.9046" x="1346.84" y="2140.2823">psbt_id : UUID &#171;FK&#187;</text><text fill="#000000" font-family="sans-serif" font-size="32" lengthAdjust="spacing" textLength="380.9608" x="1346.84" y="2183.8663">device_id : VARCHAR(255)</text><text fill="#000000" font-family="sans-serif" font-size="32" lengthAdjust="spacing" textLength="387.3289" x="1346.84" y="2227.4504">fingerprint : VARCHAR(16)</text><text fill="#000000" font-family="sans-serif" font-size="32" lengthAdjust="spacing" textLength="304.0967" x="1346.84" y="2271.0345">cosigner_index : INT</text><text fill="#000000" font-family="sans-serif" font-size="32" lengthAdjust="spacing" textLength="349.3447" x="1346.84" y="2314.6186">signed_at : TIMESTAMP</text></g><!--link wallets to members--><g class="link" data-entity-1="ent0005" data-entity-2="ent0008" data-link-type="crowfoot" data-source-line="111" id="lnk13"><path codeLine="111" d="M528.81,631.996 C358.75,631.996 146.59,631.996 146.59,631.996 C146.59,631.996 146.59,833.066 146.59,985.606" fill="none" id="wallets-members" style="stroke:#181818;stroke-width:1;"/><line style="stroke:#181818;stroke-width:1;" x1="532.81" x2="532.81" y1="627.996" y2="635.996"/><line style="stroke:#181818;stroke-width:1;" x1="529.81" x2="529.81" y1="627.996" y2="635.996"/><line style="stroke:#181818;stroke-width:1;" x1="528.81" x2="536.81" y1="631.996" y2="631.996"/><line style="stroke:#181818;stroke-width:1;" x1="146.59" x2="152.59" y1="995.606" y2="1003.606"/><line style="stroke:#181818;stroke-width:1;" x1="146.59" x2="140.59" y1="995.606" y2="1003.606"/><line style="stroke:#181818;stroke-width:1;" x1="146.59" x2="146.59" y1="995.606" y2="1003.606"/><ellipse cx="146.59" cy="989.606" fill="none" rx="4" ry="4" style="stroke:#181818;stroke-width:1;"/><text fill="#000000" font-family="sans-serif" font-size="32" lengthAdjust="spacing" textLength="59.7761" x="95.9" y="622.2041">sd&#237;l&#237;</text></g><!--link wallets to members--><!--link wallets to wcosigners--><g class="link" data-entity-1="ent0005" data-entity-2="ent0007" data-link-type="crowfoot" data-source-line="112" id="lnk14"><path codeLine="112" d="M844.24,977.096 C844.24,1258.496 844.24,1665.996 844.24,1665.996 C844.24,1665.996 741.31,1665.996 628.89,1665.996" fill="none" id="wallets-wcosigners" style="stroke:#181818;stroke-width:1;"/><line style="stroke:#181818;stroke-width:1;" x1="840.24" x2="848.24" y1="973.096" y2="973.096"/><line style="stroke:#181818;stroke-width:1;" x1="840.24" x2="848.24" y1="976.096" y2="976.096"/><line style="stroke:#181818;stroke-width:1;" x1="844.24" x2="844.24" y1="977.096" y2="969.096"/><line style="stroke:#181818;stroke-width:1;" x1="618.89" x2="610.89" y1="1665.996" y2="1671.996"/><line style="stroke:#181818;stroke-width:1;" x1="618.89" x2="610.89" y1="1665.996" y2="1659.996"/><line style="stroke:#181818;stroke-width:1;" x1="618.89" x2="610.89" y1="1665.996" y2="1665.996"/><ellipse cx="624.89" cy="1665.996" fill="none" rx="4" ry="4" style="stroke:#181818;stroke-width:1;"/><text fill="#000000" font-family="sans-serif" font-size="32" lengthAdjust="spacing" textLength="201.5364" x="642.24" y="1424.4241">m&#225; cosignery</text></g><!--link cosigners to wcosigners--><g class="link" data-entity-1="ent0006" data-entity-2="ent0007" data-link-type="crowfoot" data-source-line="113" id="lnk15"><path codeLine="113" d="M529.22,1299.526 C529.22,1386.506 529.22,1469.206 529.22,1546.986" fill="none" id="cosigners-wcosigners" style="stroke:#181818;stroke-width:1;"/><line style="stroke:#181818;stroke-width:1;" x1="525.22" x2="533.22" y1="1295.526" y2="1295.526"/><line style="stroke:#181818;stroke-width:1;" x1="525.22" x2="533.22" y1="1298.526" y2="1298.526"/><line style="stroke:#181818;stroke-width:1;" x1="529.22" x2="529.22" y1="1299.526" y2="1291.526"/><line style="stroke:#181818;stroke-width:1;" x1="529.22" x2="535.22" y1="1556.986" y2="1564.986"/><line style="stroke:#181818;stroke-width:1;" x1="529.22" x2="523.22" y1="1556.986" y2="1564.986"/><line style="stroke:#181818;stroke-width:1;" x1="529.22" x2="529.22" y1="1556.986" y2="1564.986"/><ellipse cx="529.22" cy="1550.986" fill="none" rx="4" ry="4" style="stroke:#181818;stroke-width:1;"/><text fill="#000000" font-family="sans-serif" font-size="32" lengthAdjust="spacing" textLength="133.4403" x="395.22" y="1418.4641">p&#345;i&#345;azen&#237;</text></g><!--link wallets to addresses--><g class="link" data-entity-1="ent0005" data-entity-2="ent0009" data-link-type="crowfoot" data-source-line="114" id="lnk16"><path codeLine="114" d="M882.16,977.266 C882.16,988.836 882.16,974.266 882.16,985.396" fill="none" id="wallets-addresses" style="stroke:#181818;stroke-width:1;"/><line style="stroke:#181818;stroke-width:1;" x1="878.16" x2="886.16" y1="973.266" y2="973.266"/><line style="stroke:#181818;stroke-width:1;" x1="878.16" x2="886.16" y1="976.266" y2="976.266"/><line style="stroke:#181818;stroke-width:1;" x1="882.16" x2="882.16" y1="977.266" y2="969.266"/><line style="stroke:#181818;stroke-width:1;" x1="882.16" x2="888.16" y1="995.396" y2="1003.396"/><line style="stroke:#181818;stroke-width:1;" x1="882.16" x2="876.16" y1="995.396" y2="1003.396"/><line style="stroke:#181818;stroke-width:1;" x1="882.16" x2="882.16" y1="995.396" y2="1003.396"/><ellipse cx="882.16" cy="989.396" fill="none" rx="4" ry="4" style="stroke:#181818;stroke-width:1;"/><text fill="#000000" font-family="sans-serif" font-size="32" lengthAdjust="spacing" textLength="156.7363" x="883.16" y="976.5441">m&#225; adresy</text></g><!--link wallets to addresses--><!--link wallets to psbts--><g class="link" data-entity-1="ent0005" data-entity-2="ent0011" data-link-type="crowfoot" data-source-line="117" id="lnk17"><path codeLine="117" d="M852.51,977.256 C852.51,1206.316 852.51,1499.996 852.51,1499.996 C852.51,1499.996 1077.26,1499.996 1272.36,1499.996" fill="none" id="wallets-psbts" style="stroke:#181818;stroke-width:1;"/><line style="stroke:#181818;stroke-width:1;" x1="848.51" x2="856.51" y1="973.256" y2="973.256"/><line style="stroke:#181818;stroke-width:1;" x1="848.51" x2="856.51" y1="976.256" y2="976.256"/><line style="stroke:#181818;stroke-width:1;" x1="852.51" x2="852.51" y1="977.256" y2="969.256"/><line style="stroke:#181818;stroke-width:1;" x1="1282.36" x2="1290.36" y1="1499.996" y2="1493.996"/><line style="stroke:#181818;stroke-width:1;" x1="1282.36" x2="1290.36" y1="1499.996" y2="1505.996"/><line style="stroke:#181818;stroke-width:1;" x1="1282.36" x2="1290.36" y1="1499.996" y2="1499.996"/><ellipse cx="1276.36" cy="1499.996" fill="none" rx="4" ry="4" style="stroke:#181818;stroke-width:1;"/><text fill="#000000" font-family="sans-serif" font-size="32" lengthAdjust="spacing" textLength="202.4644" x="649.51" y="1488.7541">m&#225; transakce</text></g><!--link psbts to signatures--><g class="link" data-entity-1="ent0011" data-entity-2="ent0012" data-link-type="crowfoot" data-source-line="118" id="lnk18"><path codeLine="118" d="M1531,1970.156 C1531,1981.776 1531,1967.256 1531,1978.476" fill="none" id="psbts-signatures" style="stroke:#181818;stroke-width:1;"/><line style="stroke:#181818;stroke-width:1;" x1="1527" x2="1535" y1="1966.156" y2="1966.156"/><line style="stroke:#181818;stroke-width:1;" x1="1527" x2="1535" y1="1969.156" y2="1969.156"/><line style="stroke:#181818;stroke-width:1;" x1="1531" x2="1531" y1="1970.156" y2="1962.156"/><line style="stroke:#181818;stroke-width:1;" x1="1531" x2="1537" y1="1988.476" y2="1996.476"/><line style="stroke:#181818;stroke-width:1;" x1="1531" x2="1525" y1="1988.476" y2="1996.476"/><line style="stroke:#181818;stroke-width:1;" x1="1531" x2="1531" y1="1988.476" y2="1996.476"/><ellipse cx="1531" cy="1982.476" fill="none" rx="4" ry="4" style="stroke:#181818;stroke-width:1;"/><text fill="#000000" font-family="sans-serif" font-size="32" lengthAdjust="spacing" textLength="174.4964" x="1356" y="2014.5241">m&#225; podpisy</text></g><!--link devices to wallets--><!--link addresses to psbts--><!--link members to wcosigners--><!--link addresses to cosigners--><?plantuml-src bLRTQjim5BxtKuZiObl0iALDBqeff5spXT5H-ZC6OnX5Eeb5RCcJv2Rf3-mXTjFBFK2VelH5zYIJRFadThgc18BE-OwEllCdMSqOJx34CHfZCfjAaN9wA28XqJna6ZnLuXGcE8tqK71zngu0RVLge0en5NF6fsY28rNV5Z4EUfa04bA7eWPmGK51Wdhzcb9YFhFAhRvNqmBNJ2_HjOVGGOFbg-70_YmY90NfjDiz-_DkFIza511XaaJWUOdPZQU0EZZLeQz0NZ827UFOSqTqA5YLwY2ia5jdvtPHjvlB0QFTBjf5vqVVpj7Utidd_Ns3-xxvcvW4W4mauzeP66LiuemgCSBZkaWaO0qqmDcEqV7HsVdW-CGIlwtHdUCe0krBc3AbvNA5SOxbZDswP9pB_s5iQZCNSbRnoKfLIef8bkXWLHcRvUYBNV5oXGanDJ4dSGgBKYk10Bk4m1GwSsGgKmKUOfEizT2JEIbY9aAnAGUPHrrAPTo5vgMr4f9D6GyIhCDAkKZISI25q2zXw3A_IdJUPhgsGiESfyKPNMH8dj2CUHVLmcjiQZE88HuNvxlrneUt6zu1A-LkyjkumnjCCQKIb7B3LqeRitKxicvj4NROMi8EVEbG9cgirzuX5iY3o5Pb08xvnSNeGwCPkwWChXMQzH6CiOATxTfWQgnJo_ZhuFJmq-3qJV_TsspWVgPC6kQcFrGP94cbDDnMbLfe70KYrKbg4AmjSZ3wc8EWD8kp54m0MgYMS2MawMtEWUWWkwDhsJCfOJWoJmGDzEBPf2AK9lIP1ibIO5lU12rTVrJYHldDN6JPTR3BRjdYjLps-lsthHkY0D_lMAoQm9KBBrC-qJUlqIb4M3F1LSWIXVx--eqQzxfNtDytDxulhijvtKKTHH_keuVxJjEaTgKOg_ZXJqbjsV4gRArrydZ77k_m5V0rZglvStwnbOtJjO7KPw7fAHy2vqMR5rxXcPaOBzSxerevdMKYQCBSWKCX2Q1Ba9eH7Ddk9pFxiI4co8sZyehNslzkddmA_8Vv8E5-yIHwLJmDWun6TGWHiN6fKSyd8afZRgwpfPaID6SwPBnLiQ94fLFpWeJQhsLwtSdEgB8fKjRWvhm_1PUUlNy0?></g></svg>